<svg width="25" height="28" viewBox="0 0 25 28" fill="none" xmlns="http://www.w3.org/2000/svg">
<path d="M12.6172 22.3333C11.4841 22.3333 10.4011 22.1166 9.368 21.6833C8.37936 21.261 7.49902 20.6638 6.72699 19.8916C5.95496 19.1194 5.35789 18.2388 4.93577 17.2499C4.50255 16.2166 4.28593 15.1333 4.28593 13.9999C4.28593 12.8666 4.50255 11.7833 4.93577 10.7499C5.35789 9.76103 5.95496 8.88048 6.72699 8.10825C7.49902 7.33603 8.37936 6.73881 9.368 6.31659C10.4011 5.88325 11.4841 5.66659 12.6172 5.66659C13.7502 5.66659 14.8333 5.88325 15.8664 6.31659C16.855 6.73881 17.7353 7.33603 18.5074 8.10825C19.2794 8.88048 19.8765 9.76103 20.2986 10.7499C20.7318 11.7833 20.9484 12.8666 20.9484 13.9999C20.9484 15.1333 20.7318 16.2166 20.2986 17.2499C19.8765 18.2388 19.2794 19.1194 18.5074 19.8916C17.7353 20.6638 16.855 21.261 15.8664 21.6833C14.8333 22.1166 13.7502 22.3333 12.6172 22.3333ZM11.7841 13.1666H8.45156V14.8333H11.7841V18.1666H13.4503V14.8333H16.7828V13.1666H13.4503V9.83325H11.7841V13.1666Z" fill="#6B7280"/>
</svg>
