<svg width="40" height="40" viewBox="0 0 40 40" fill="none" xmlns="http://www.w3.org/2000/svg">
<path d="M26.665 23.75H28.3312V25.4167H11.6687V23.75H13.335V17.9167C13.335 16.7056 13.6404 15.5833 14.2514 14.55C14.8401 13.55 15.6344 12.7556 16.6341 12.1667C17.6672 11.5556 18.7891 11.25 20 11.25C21.2108 11.25 22.3327 11.5556 23.3658 12.1667C24.3655 12.7556 25.1598 13.55 25.7485 14.55C26.3595 15.5833 26.665 16.7056 26.665 17.9167V23.75ZM24.9987 23.75V17.9167C24.9987 17.0167 24.771 16.1778 24.3155 15.4C23.8712 14.6444 23.2714 14.0444 22.516 13.6C21.7384 13.1444 20.8997 12.9167 20 12.9167C19.1002 12.9167 18.2615 13.1444 17.4839 13.6C16.7285 14.0444 16.1287 14.6444 15.6844 15.4C15.2289 16.1778 15.0012 17.0167 15.0012 17.9167V23.75H24.9987ZM17.5006 27.0833H22.4993V28.75H17.5006V27.0833Z" fill="#4B5563"/>
</svg>
