<svg width="40" height="40" viewBox="0 0 40 40" fill="none" xmlns="http://www.w3.org/2000/svg">
<path d="M0 20C0 8.95431 8.95431 0 20 0C31.0457 0 40 8.95431 40 20C40 31.0457 31.0457 40 20 40C8.95431 40 0 31.0457 0 20Z" fill="#EF4444"/>
<path d="M22.9156 16.5H25.8313V17.6666H24.665V25.25C24.665 25.4133 24.6086 25.5514 24.4959 25.6641C24.3832 25.7769 24.2452 25.8333 24.0819 25.8333H15.9181C15.7549 25.8333 15.6169 25.7769 15.5041 25.6641C15.3914 25.5514 15.335 25.4133 15.335 25.25V17.6666H14.1688V16.5H17.0844V14.75C17.0844 14.5866 17.1408 14.4486 17.2535 14.3358C17.3662 14.223 17.5042 14.1666 17.6675 14.1666H22.3325C22.4958 14.1666 22.6338 14.223 22.7465 14.3358C22.8593 14.4486 22.9156 14.5866 22.9156 14.75V16.5ZM23.4988 17.6666H16.5013V24.6666H23.4988V17.6666ZM18.2506 19.4166H19.4169V22.9166H18.2506V19.4166ZM20.5831 19.4166H21.7494V22.9166H20.5831V19.4166ZM18.2506 15.3333V16.5H21.7494V15.3333H18.2506Z" fill="white"/>
</svg>
