<svg width="32" height="32" viewBox="0 0 32 32" fill="none" xmlns="http://www.w3.org/2000/svg">
<path d="M0 16C0 7.16344 7.16344 0 16 0C24.8366 0 32 7.16344 32 16C32 24.8366 24.8366 32 16 32C7.16344 32 0 24.8366 0 16Z" fill="#F3E8FF"/>
<path d="M11.9181 20.0717H12.7462L18.1692 14.6467L17.3528 13.8183L11.9181 19.255V20.0717ZM21.2481 21.2383H10.7519V18.765L18.5891 10.925C18.6979 10.8161 18.834 10.7617 18.9973 10.7617C19.1605 10.7617 19.2966 10.8161 19.4054 10.925L21.0615 12.5817C21.1782 12.6906 21.2365 12.8267 21.2365 12.99C21.2365 13.1533 21.1782 13.2933 21.0615 13.41L14.3906 20.0717H21.2481V21.2383ZM18.1692 12.99L18.9973 13.8183L19.8253 12.99L18.9973 12.1617L18.1692 12.99Z" fill="#9333EA"/>
</svg>
