<svg width="20" height="19" viewBox="0 0 20 19" fill="none" xmlns="http://www.w3.org/2000/svg">
<path d="M10.0704 3.95999C10.6504 3.43999 11.3154 3.09749 12.0654 2.93249C12.8154 2.76749 13.5554 2.78499 14.2854 2.98499C15.0454 3.19499 15.7029 3.57749 16.2579 4.13249C16.8129 4.68749 17.1954 5.34499 17.4054 6.10499C17.6054 6.83499 17.6229 7.57249 17.4579 8.31749C17.2929 9.06249 16.9504 9.72999 16.4304 10.32L10.0704 16.68L3.71043 10.32C3.19043 9.72999 2.84793 9.06249 2.68293 8.31749C2.51793 7.57249 2.53543 6.83499 2.73543 6.10499C2.94543 5.34499 3.33043 4.68749 3.89043 4.13249C4.45043 3.57749 5.10543 3.19499 5.85543 2.98499C6.58543 2.78499 7.32543 2.76749 8.07543 2.93249C8.82543 3.09749 9.49043 3.43999 10.0704 3.95999ZM15.1854 5.18999C14.8154 4.81999 14.3854 4.56749 13.8954 4.43249C13.4054 4.29749 12.9104 4.28499 12.4104 4.39499C11.9104 4.50499 11.4654 4.73499 11.0754 5.08499L10.0704 5.98499L9.06543 5.08499C8.68543 4.73499 8.24293 4.50499 7.73793 4.39499C7.23293 4.28499 6.73543 4.29749 6.24543 4.43249C5.75543 4.56749 5.32543 4.81999 4.95543 5.18999C4.58543 5.55999 4.33043 5.98999 4.19043 6.47999C4.05043 6.96999 4.03293 7.46249 4.13793 7.95749C4.24293 8.45249 4.46543 8.89499 4.80543 9.28499L10.0704 14.565L15.3354 9.28499C15.6754 8.89499 15.8979 8.45249 16.0029 7.95749C16.1079 7.46249 16.0904 6.96999 15.9504 6.47999C15.8104 5.98999 15.5554 5.55999 15.1854 5.18999Z" fill="#6B7280"/>
</svg>
