<svg width="25" height="28" viewBox="0 0 25 28" fill="none" xmlns="http://www.w3.org/2000/svg">
<path d="M3.81926 14.8334H8.38479C8.46255 16.1778 8.71248 17.4834 9.1346 18.7501C9.54561 19.9834 10.1121 21.1445 10.8342 22.2334C9.60115 22.0445 8.47643 21.6028 7.46002 20.9084C6.44361 20.214 5.61881 19.3445 4.98564 18.3001C4.34135 17.2334 3.95256 16.0778 3.81926 14.8334ZM3.81926 13.1667C3.95256 11.9223 4.34135 10.7667 4.98564 9.70006C5.61881 8.65562 6.44361 7.78618 7.46002 7.09173C8.47643 6.39729 9.60115 5.95562 10.8342 5.76673C10.1121 6.85562 9.54561 8.01673 9.1346 9.25006C8.71248 10.5167 8.46255 11.8223 8.38479 13.1667H3.81926ZM20.4151 13.1667H15.8496C15.7718 11.8223 15.5219 10.5167 15.0998 9.25006C14.6888 8.01673 14.1222 6.85562 13.4002 5.76673C14.6332 5.95562 15.7579 6.39729 16.7744 7.09173C17.7908 7.78618 18.6156 8.65562 19.2487 9.70006C19.893 10.7667 20.2818 11.9223 20.4151 13.1667ZM20.4151 14.8334C20.2818 16.0778 19.893 17.2334 19.2487 18.3001C18.6156 19.3445 17.7908 20.214 16.7744 20.9084C15.7579 21.6028 14.6332 22.0445 13.4002 22.2334C14.1222 21.1445 14.6888 19.9834 15.0998 18.7501C15.5219 17.4834 15.7718 16.1778 15.8496 14.8334H20.4151ZM10.0677 14.8334H14.1667C14.1 15.9778 13.889 17.089 13.5335 18.1667C13.1891 19.2223 12.717 20.2223 12.1172 21.1667C11.5173 20.2223 11.0452 19.2223 10.7009 18.1667C10.3454 17.089 10.1344 15.9778 10.0677 14.8334ZM10.0677 13.1667C10.1344 12.0223 10.3454 10.9112 10.7009 9.8334C11.0452 8.77784 11.5173 7.77784 12.1172 6.8334C12.717 7.77784 13.1891 8.77784 13.5335 9.8334C13.889 10.9112 14.1 12.0223 14.1667 13.1667H10.0677Z" fill="#6B7280"/>
</svg>
