<svg width="33" height="30" viewBox="0 0 33 30" fill="none" xmlns="http://www.w3.org/2000/svg">
<path d="M17.75 1.25V5.075C19.2333 5.25833 20.6042 5.75 21.8625 6.55C23.1208 7.35 24.15 8.37917 24.95 9.6375C25.75 10.8958 26.2417 12.2667 26.425 13.75H30.25V16.25H26.425C26.2417 17.7333 25.75 19.1042 24.95 20.3625C24.15 21.6208 23.1208 22.65 21.8625 23.45C20.6042 24.25 19.2333 24.7417 17.75 24.925V28.75H15.25V24.925C13.7667 24.7417 12.3958 24.25 11.1375 23.45C9.87917 22.65 8.85 21.6208 8.05 20.3625C7.25 19.1042 6.75833 17.7333 6.575 16.25H2.75V13.75H6.575C6.75833 12.2667 7.25 10.8958 8.05 9.6375C8.85 8.37917 9.87917 7.35 11.1375 6.55C12.3958 5.75 13.7667 5.25833 15.25 5.075V1.25H17.75ZM16.5 12.5C16.05 12.5 15.6333 12.6125 15.25 12.8375C14.8667 13.0625 14.5625 13.3667 14.3375 13.75C14.1125 14.1333 14 14.55 14 15C14 15.45 14.1125 15.8667 14.3375 16.25C14.5625 16.6333 14.8667 16.9375 15.25 17.1625C15.6333 17.3875 16.05 17.5 16.5 17.5C16.95 17.5 17.3667 17.3875 17.75 17.1625C18.1333 16.9375 18.4375 16.6333 18.6625 16.25C18.8875 15.8667 19 15.45 19 15C19 14.55 18.8875 14.1333 18.6625 13.75C18.4375 13.3667 18.1333 13.0625 17.75 12.8375C17.3667 12.6125 16.95 12.5 16.5 12.5Z" fill="white"/>
</svg>
