<svg width="17" height="16" viewBox="0 0 17 16" fill="none" xmlns="http://www.w3.org/2000/svg">
<path d="M10.3328 5.635H15.1328C15.4028 5.635 15.6528 5.7025 15.8828 5.8375C16.1128 5.9725 16.2953 6.155 16.4303 6.385C16.5653 6.615 16.6328 6.865 16.6328 7.135V8.71C16.6328 8.91 16.5928 9.1 16.5128 9.28L14.2028 14.92C14.1428 15.06 14.0503 15.1725 13.9253 15.2575C13.8003 15.3425 13.6628 15.385 13.5128 15.385H0.882812C0.672812 15.385 0.495312 15.3125 0.350313 15.1675C0.205312 15.0225 0.132812 14.845 0.132812 14.635V7.135C0.132812 6.925 0.205312 6.7475 0.350313 6.6025C0.495312 6.4575 0.672812 6.385 0.882812 6.385H3.49281C3.61281 6.385 3.72781 6.3575 3.83781 6.3025C3.94781 6.2475 4.03781 6.17 4.10781 6.07L8.20281 0.280003C8.25281 0.200003 8.32281 0.147503 8.41281 0.122502C8.50281 0.0975027 8.58781 0.110003 8.66781 0.160003L10.0328 0.835003C10.4228 1.035 10.7103 1.335 10.8953 1.735C11.0803 2.135 11.1178 2.55 11.0078 2.98L10.3328 5.635ZM4.63281 7.57V13.885H13.0028L15.1328 8.71V7.135H10.3328C10.0128 7.135 9.72531 7.045 9.47031 6.865C9.21531 6.685 9.03281 6.45 8.92281 6.16C8.81281 5.87 8.79781 5.57 8.87781 5.26L9.55281 2.605C9.57281 2.515 9.56531 2.43 9.53031 2.35C9.49531 2.27 9.43781 2.21 9.35781 2.17L8.86281 1.93L5.33781 6.94C5.14781 7.2 4.91281 7.41 4.63281 7.57ZM3.13281 7.885H1.63281V13.885H3.13281V7.885Z" fill="#6B7280"/>
</svg>
