<svg width="26" height="24" viewBox="0 0 26 24" fill="none" xmlns="http://www.w3.org/2000/svg">
<path d="M17.75 2.73999C18.75 2.73999 19.67 2.99999 20.51 3.51999C21.35 4.03999 22.01 4.74666 22.49 5.63999C22.9967 6.57332 23.25 7.60666 23.25 8.73999C23.25 10.2867 22.89 11.7733 22.17 13.2C21.5567 14.4133 20.6833 15.58 19.55 16.7C18.67 17.58 17.6233 18.44 16.41 19.28C15.73 19.7467 14.8367 20.3067 13.73 20.96L13.25 21.24L12.77 20.96C11.61 20.28 10.6767 19.6933 9.97 19.2C8.70333 18.32 7.61667 17.4133 6.71 16.48C5.56333 15.28 4.69667 14.04 4.11 12.76L2.25 12.74V10.74L3.47 10.76C3.32333 10.0933 3.25 9.41999 3.25 8.73999C3.25 7.60666 3.50333 6.57332 4.01 5.63999C4.49 4.74666 5.15 4.03999 5.99 3.51999C6.83 2.99999 7.75 2.73999 8.75 2.73999C9.61667 2.73999 10.4767 2.95332 11.33 3.37999C12.05 3.72666 12.69 4.17999 13.25 4.73999C13.81 4.17999 14.45 3.72666 15.17 3.37999C16.0233 2.95332 16.8833 2.73999 17.75 2.73999ZM17.75 4.73999C17.2167 4.73999 16.6767 4.86999 16.13 5.12999C15.5833 5.38999 15.0967 5.73332 14.67 6.15999L13.25 7.57999L11.83 6.15999C11.4033 5.73332 10.9167 5.38999 10.37 5.12999C9.82333 4.86999 9.28333 4.73999 8.75 4.73999C8.11 4.73999 7.52333 4.91332 6.99 5.25999C6.45667 5.60666 6.03333 6.08332 5.72 6.68999C5.40667 7.29666 5.25 7.98666 5.25 8.75999C5.25 9.42666 5.33667 10.0933 5.51 10.76L7.69 10.74L9.75 7.29999L12.75 12.3L13.69 10.74H18.25V12.74H14.81L12.75 16.2L9.75 11.2L8.81 12.74L6.35 12.76C7.12333 14.0933 8.30333 15.3933 9.89 16.66C10.5967 17.22 11.4033 17.7867 12.31 18.36C12.59 18.5333 12.9033 18.72 13.25 18.92C13.5967 18.72 13.91 18.5333 14.19 18.36C15.0967 17.7867 15.9033 17.22 16.61 16.66C18.13 15.4467 19.2767 14.2 20.05 12.92C20.85 11.5867 21.25 10.2 21.25 8.75999C21.25 7.98666 21.0967 7.29332 20.79 6.67999C20.4833 6.06666 20.0633 5.59332 19.53 5.25999C18.9967 4.92666 18.4033 4.75332 17.75 4.73999Z" fill="#4B5563"/>
</svg>
