<svg width="22" height="21" viewBox="0 0 22 21" fill="none" xmlns="http://www.w3.org/2000/svg">
<path d="M10.9297 2.21669C12.1183 2.21669 13.2513 2.39447 14.3288 2.75002C15.3841 3.09447 16.3145 3.58058 17.1198 4.20836C17.9252 4.83613 18.55 5.55558 18.9943 6.36669C19.4498 7.22224 19.6775 8.11113 19.6775 9.03336C19.6775 9.95558 19.4498 10.8389 18.9943 11.6834C18.55 12.4945 17.9252 13.2167 17.1198 13.85C16.3145 14.4834 15.3841 14.9722 14.3288 15.3167C13.2513 15.6722 12.1183 15.85 10.9297 15.85C10.452 15.85 9.97438 15.8167 9.49672 15.75L5.81431 18.1667C5.60325 18.2778 5.4644 18.3111 5.39775 18.2667C5.3311 18.2222 5.34221 18.0722 5.43107 17.8167L6.16422 14.75C4.94231 14.1278 3.98143 13.3222 3.28161 12.3334C2.54846 11.3111 2.18188 10.2111 2.18188 9.03336C2.18188 8.11113 2.40961 7.22224 2.86505 6.36669C3.30938 5.55558 3.93422 4.83613 4.73958 4.20836C5.54493 3.58058 6.47526 3.09447 7.53055 2.75002C8.60806 2.39447 9.74111 2.21669 10.9297 2.21669ZM15.8451 8.91669L17.0782 7.73336C17.1559 7.66669 17.1948 7.5778 17.1948 7.46669C17.1948 7.35558 17.1587 7.26113 17.0865 7.18336C17.0143 7.10558 16.9226 7.06669 16.8116 7.06669C16.7005 7.06669 16.6061 7.10002 16.5283 7.16669L14.9287 8.73336V7.45002C14.9287 7.33891 14.8898 7.24447 14.8121 7.16669C14.7343 7.08891 14.6399 7.05002 14.5288 7.05002C14.4177 7.05002 14.3233 7.08891 14.2455 7.16669C14.1678 7.24447 14.1289 7.33891 14.1289 7.45002V9.56669C14.1178 9.63336 14.1178 9.70002 14.1289 9.76669V10.9667C14.1289 11.0667 14.1678 11.1556 14.2455 11.2334C14.3233 11.3111 14.4177 11.35 14.5288 11.35C14.6399 11.35 14.7343 11.3111 14.8121 11.2334C14.8898 11.1556 14.9287 11.0667 14.9287 10.9667V9.81669L15.2786 9.48336L16.4616 11.1667C16.5394 11.2778 16.6505 11.3334 16.7949 11.3334C16.8727 11.3334 16.9449 11.3111 17.0115 11.2667C17.1004 11.2 17.1559 11.1139 17.1781 11.0084C17.2004 10.9028 17.1781 10.8056 17.1115 10.7167L15.8451 8.91669ZM13.3791 10.5334H12.1627V7.45002C12.1627 7.35002 12.1266 7.26113 12.0544 7.18336C11.9822 7.10558 11.8906 7.06669 11.7795 7.06669C11.6684 7.06669 11.574 7.10558 11.4962 7.18336C11.4185 7.26113 11.3796 7.35002 11.3796 7.45002V10.9167C11.3796 11.0278 11.4185 11.1222 11.4962 11.2C11.574 11.2778 11.6684 11.3167 11.7795 11.3167H13.3791C13.4902 11.3167 13.5846 11.2778 13.6623 11.2C13.7401 11.1222 13.779 11.0306 13.779 10.925C13.779 10.8195 13.7401 10.7278 13.6623 10.65C13.5846 10.5722 13.4902 10.5334 13.3791 10.5334ZM8.51363 9.61669L9.08016 8.20002L9.61336 9.61669H8.51363ZM10.6131 10.0334C10.6131 10.0222 10.6131 10.0167 10.6131 10.0167C10.6131 9.91669 10.5742 9.8278 10.4965 9.75002L9.63002 7.41669C9.5967 7.29447 9.53005 7.19724 9.43007 7.12502C9.3301 7.0528 9.22179 7.01669 9.10515 7.01669C8.98852 7.01669 8.88299 7.05002 8.78857 7.11669C8.69414 7.18336 8.61916 7.27224 8.56362 7.38336L7.18063 10.7834C7.1362 10.8834 7.1362 10.9834 7.18063 11.0834C7.22507 11.1834 7.29727 11.2556 7.39725 11.3C7.49722 11.3445 7.5972 11.3445 7.69717 11.3C7.79715 11.2556 7.86935 11.1834 7.91378 11.0834L8.18038 10.4H9.91328L10.1632 11.0667C10.1854 11.1445 10.2326 11.2084 10.3049 11.2584C10.3771 11.3084 10.452 11.3334 10.5298 11.3334C10.5742 11.3334 10.6187 11.3222 10.6631 11.3C10.7631 11.2667 10.8353 11.2 10.8797 11.1C10.9241 11 10.9297 10.9 10.8964 10.8L10.6131 10.0334ZM7.84713 7.46669C7.84713 7.35558 7.80826 7.26113 7.7305 7.18336C7.65274 7.10558 7.55832 7.06669 7.44723 7.06669H4.74791C4.63683 7.06669 4.54241 7.10558 4.46465 7.18336C4.38689 7.26113 4.34801 7.3528 4.34801 7.45835C4.34801 7.56391 4.38689 7.65558 4.46465 7.73336C4.54241 7.81113 4.63683 7.85002 4.74791 7.85002H5.71433V10.9667C5.71433 11.0778 5.75321 11.1722 5.83097 11.25C5.90873 11.3278 6.00037 11.3667 6.1059 11.3667C6.21143 11.3667 6.30308 11.3278 6.38083 11.25C6.45859 11.1722 6.49747 11.0778 6.49747 10.9667V7.85002H7.44723C7.55832 7.85002 7.65274 7.81113 7.7305 7.73336C7.80826 7.65558 7.84713 7.56669 7.84713 7.46669Z" fill="#1F2937"/>
</svg>
