<svg width="25" height="28" viewBox="0 0 25 28" fill="none" xmlns="http://www.w3.org/2000/svg">
<path d="M19.0322 22.75H5.70221V21.0833C5.70221 20.3278 5.88827 19.6306 6.2604 18.9917C6.63253 18.3528 7.13796 17.8472 7.77669 17.475C8.41542 17.1028 9.11247 16.9167 9.86783 16.9167H14.8666C15.622 16.9167 16.319 17.1028 16.9577 17.475C17.5965 17.8472 18.1019 18.3528 18.474 18.9917C18.8461 19.6306 19.0322 20.3278 19.0322 21.0833V22.75ZM12.3672 15.25C11.4674 15.25 10.6288 15.0222 9.85117 14.5667C9.09581 14.1222 8.49596 13.5222 8.05162 12.7667C7.59618 11.9889 7.36846 11.15 7.36846 10.25C7.36846 9.35 7.59618 8.51111 8.05162 7.73333C8.49596 6.97778 9.09581 6.37778 9.85117 5.93333C10.6288 5.47778 11.4674 5.25 12.3672 5.25C13.267 5.25 14.1057 5.47778 14.8832 5.93333C15.6386 6.37778 16.2385 6.97778 16.6828 7.73333C17.1382 8.51111 17.366 9.35 17.366 10.25C17.366 11.15 17.1382 11.9889 16.6828 12.7667C16.2385 13.5222 15.6386 14.1222 14.8832 14.5667C14.1057 15.0222 13.267 15.25 12.3672 15.25Z" fill="#6B7280"/>
</svg>
