<svg width="24" height="24" viewBox="0 0 24 24" fill="none" xmlns="http://www.w3.org/2000/svg">
<path d="M14.9156 8.50004H17.8313V9.66671H16.665V17.25C16.665 17.4134 16.6086 17.5514 16.4959 17.6642C16.3832 17.777 16.2451 17.8334 16.0819 17.8334H7.91813C7.75485 17.8334 7.61684 17.777 7.50411 17.6642C7.39137 17.5514 7.335 17.4134 7.335 17.25V9.66671H6.16875V8.50004H9.08438V6.75004C9.08438 6.58671 9.14074 6.44865 9.25348 6.33587C9.36622 6.2231 9.50423 6.16671 9.6675 6.16671H14.3325C14.4958 6.16671 14.6338 6.2231 14.7465 6.33587C14.8593 6.44865 14.9156 6.58671 14.9156 6.75004V8.50004ZM15.4987 9.66671H8.50125V16.6667H15.4987V9.66671ZM10.2506 11.4167H11.4169V14.9167H10.2506V11.4167ZM12.5831 11.4167H13.7494V14.9167H12.5831V11.4167ZM10.2506 7.33337V8.50004H13.7494V7.33337H10.2506Z" fill="#9CA3AF"/>
</svg>
