<svg width="15" height="20" viewBox="0 0 15 20" fill="none" xmlns="http://www.w3.org/2000/svg">
<path d="M11.3709 8.83337H11.9541C12.1173 8.83337 12.2553 8.88976 12.3681 9.00254C12.4808 9.11532 12.5372 9.25337 12.5372 9.41671V15.25C12.5372 15.4134 12.4808 15.5514 12.3681 15.6642C12.2553 15.777 12.1173 15.8334 11.9541 15.8334H2.62406C2.46079 15.8334 2.32278 15.777 2.21005 15.6642C2.09731 15.5514 2.04094 15.4134 2.04094 15.25V9.41671C2.04094 9.25337 2.09731 9.11532 2.21005 9.00254C2.32278 8.88976 2.46079 8.83337 2.62406 8.83337H3.20719V8.25004C3.20719 7.51115 3.39379 6.82282 3.76699 6.18504C4.12464 5.5706 4.61058 5.08449 5.2248 4.72671C5.86235 4.35337 6.55044 4.16671 7.28906 4.16671C8.02769 4.16671 8.71578 4.35337 9.35333 4.72671C9.96755 5.08449 10.4535 5.5706 10.8111 6.18504C11.1843 6.82282 11.3709 7.51115 11.3709 8.25004V8.83337ZM3.20719 10V14.6667H11.3709V10H3.20719ZM6.70594 11.1667H7.87219V13.5H6.70594V11.1667ZM10.2047 8.83337V8.25004C10.2047 7.72115 10.0745 7.2331 9.814 6.78587C9.55353 6.33865 9.19977 5.98476 8.75271 5.72421C8.30565 5.46365 7.81776 5.33337 7.28906 5.33337C6.76036 5.33337 6.27248 5.46365 5.82542 5.72421C5.37836 5.98476 5.0246 6.33865 4.76413 6.78587C4.50367 7.2331 4.37344 7.72115 4.37344 8.25004V8.83337H10.2047Z" fill="#6B7280"/>
</svg>
