<svg width="15" height="20" viewBox="0 0 15 20" fill="none" xmlns="http://www.w3.org/2000/svg">
<path d="M7.28906 15.8334C6.49601 15.8334 5.73795 15.6817 5.01487 15.3784C4.3229 15.0828 3.70673 14.6648 3.16637 14.1242C2.626 13.5837 2.2081 12.9673 1.91265 12.275C1.60942 11.5517 1.45781 10.7934 1.45781 10C1.45781 9.20671 1.60942 8.44837 1.91265 7.72504C2.2081 7.03282 2.626 6.41643 3.16637 5.87587C3.70673 5.33532 4.3229 4.91726 5.01487 4.62171C5.73795 4.31837 6.49601 4.16671 7.28906 4.16671C8.08211 4.16671 8.84017 4.31837 9.56325 4.62171C10.2552 4.91726 10.8714 5.33532 11.4118 5.87587C11.9521 6.41643 12.37 7.03282 12.6655 7.72504C12.9687 8.44837 13.1203 9.20671 13.1203 10C13.1203 10.7934 12.9687 11.5517 12.6655 12.275C12.37 12.9673 11.9521 13.5837 11.4118 14.1242C10.8714 14.6648 10.2552 15.0828 9.56325 15.3784C8.84017 15.6817 8.08211 15.8334 7.28906 15.8334ZM5.95953 14.4684C5.37641 13.2395 5.04597 11.9445 4.96822 10.5834H2.65905C2.7368 11.19 2.92534 11.7578 3.22468 12.2867C3.52402 12.8156 3.90888 13.2687 4.37927 13.6459C4.84965 14.0231 5.37641 14.2973 5.95953 14.4684ZM6.14613 10.5834C6.23166 11.9834 6.61263 13.2978 7.28906 14.5267C7.96548 13.2978 8.34646 11.9834 8.43198 10.5834H6.14613ZM11.9191 10.5834H9.6099C9.53215 11.9445 9.2056 13.2395 8.63025 14.4684C9.2056 14.2973 9.72847 14.0231 10.1989 13.6459C10.6692 13.2687 11.0541 12.8156 11.3534 12.2867C11.6528 11.7578 11.8413 11.19 11.9191 10.5834ZM2.65905 9.41671H4.96822C5.04597 8.0556 5.37641 6.7606 5.95953 5.53171C5.37641 5.70282 4.84965 5.97698 4.37927 6.35421C3.90888 6.73143 3.52402 7.18449 3.22468 7.71337C2.92534 8.24226 2.7368 8.81004 2.65905 9.41671ZM6.14613 9.41671H8.43198C8.34646 8.01671 7.96548 6.70226 7.28906 5.47337C6.61263 6.70226 6.23166 8.01671 6.14613 9.41671ZM8.63025 5.53171C9.2056 6.7606 9.53215 8.0556 9.6099 9.41671H11.9191C11.8413 8.81004 11.6528 8.24226 11.3534 7.71337C11.0541 7.18449 10.6692 6.73143 10.1989 6.35421C9.72847 5.97698 9.2056 5.70282 8.63025 5.53171Z" fill="#6B7280"/>
</svg>
