<svg width="33" height="32" viewBox="0 0 33 32" fill="none" xmlns="http://www.w3.org/2000/svg">
<path d="M13.1707 11.5899C13.6917 11.1388 14.2748 10.7888 14.9201 10.5399C15.581 10.291 16.2691 10.1666 16.9844 10.1666C17.7774 10.1666 18.5355 10.3183 19.2586 10.6216C19.9505 10.9171 20.5667 11.3352 21.1071 11.8758C21.6474 12.4163 22.0653 13.0327 22.3608 13.7249C22.664 14.4483 22.8156 15.2066 22.8156 15.9999C22.8156 16.6144 22.7223 17.2094 22.5357 17.7849C22.3569 18.3449 22.0964 18.866 21.7543 19.3483L19.9 15.9999H21.6494C21.6494 15.1521 21.4356 14.3666 21.0079 13.6433C20.5959 12.9433 20.04 12.3871 19.3402 11.9749C18.6171 11.5471 17.8319 11.3333 16.9844 11.3333C16.3702 11.3333 15.7793 11.4499 15.2117 11.6833C14.6674 11.9088 14.1815 12.2238 13.7539 12.6283L13.1707 11.5899ZM20.798 20.4099C20.2771 20.861 19.694 21.211 19.0486 21.4599C18.3878 21.7088 17.6997 21.8333 16.9844 21.8333C16.1913 21.8333 15.4333 21.6816 14.7102 21.3783C14.0182 21.0827 13.402 20.6646 12.8617 20.1241C12.3213 19.5835 11.9034 18.9671 11.608 18.2749C11.3047 17.5516 11.1531 16.7933 11.1531 15.9999C11.1531 15.3855 11.2464 14.7905 11.433 14.2149C11.6119 13.6549 11.8723 13.1338 12.2144 12.6516L14.0688 15.9999H12.3194C12.3194 16.8477 12.5332 17.6333 12.9608 18.3566C13.3729 19.0566 13.9288 19.6127 14.6286 20.0249C15.3516 20.4527 16.1369 20.6666 16.9844 20.6666C17.5986 20.6666 18.1895 20.5499 18.7571 20.3166C19.3013 20.091 19.7873 19.776 20.2149 19.3716L20.798 20.4099Z" fill="#6B7280"/>
</svg>
