<svg width="26" height="24" viewBox="0 0 26 24" fill="none" xmlns="http://www.w3.org/2000/svg">
<path d="M11.5301 8.54001L9.69006 9.20001V12.74H7.69006V7.80001L12.9701 5.88001C13.2234 5.78667 13.4901 5.74667 13.7701 5.76001C14.3167 5.77334 14.8134 5.94667 15.2601 6.28001C15.7067 6.61334 16.0167 7.04667 16.1901 7.58001C16.3767 8.15334 16.5434 8.54667 16.6901 8.76001C17.1567 9.37334 17.7401 9.85667 18.4401 10.21C19.1401 10.5633 19.8901 10.74 20.6901 10.74V12.74C19.6234 12.74 18.6167 12.5133 17.6701 12.06C16.7367 11.62 15.9434 11 15.2901 10.2L14.5901 14.16L16.6901 15.92V22.74H14.6901V16.86L12.4301 14.94L11.6901 19.08L4.81006 17.86L5.15006 15.9L10.0701 16.76L11.5301 8.54001ZM15.1901 5.24001C14.8301 5.24001 14.4967 5.15334 14.1901 4.98001C13.8834 4.80667 13.6401 4.56667 13.4601 4.26001C13.2801 3.95334 13.1901 3.61667 13.1901 3.25001C13.1901 2.88334 13.2801 2.54667 13.4601 2.24001C13.6401 1.93334 13.8834 1.69001 14.1901 1.51001C14.4967 1.33001 14.8301 1.24334 15.1901 1.25001C15.5501 1.25667 15.8834 1.34667 16.1901 1.52001C16.4967 1.69334 16.7401 1.93334 16.9201 2.24001C17.1001 2.54667 17.1901 2.88334 17.1901 3.25001C17.1901 3.61667 17.1001 3.95334 16.9201 4.26001C16.7401 4.56667 16.4967 4.81001 16.1901 4.99001C15.8834 5.17001 15.5501 5.26001 15.1901 5.26001V5.24001Z" fill="#4B5563"/>
</svg>
