<svg width="16" height="21" viewBox="0 0 16 21" fill="none" xmlns="http://www.w3.org/2000/svg">
<path d="M14.4691 10.5V11.6667C14.4691 12.1411 14.3019 12.5961 13.9676 13.0317C13.641 13.4517 13.1823 13.8231 12.5914 14.1458C12.0005 14.4686 11.3202 14.7156 10.5505 14.8867C9.75742 15.0733 8.92549 15.1667 8.05469 15.1667C6.91177 15.1667 5.85048 15.0111 4.87083 14.7C3.91451 14.4044 3.14867 14 2.57332 13.4867C1.98242 12.9578 1.67142 12.3861 1.64032 11.7717V10.5C1.64032 10.9744 1.80748 11.4294 2.14181 11.865C2.46836 12.285 2.92708 12.6564 3.51798 12.9792C4.10888 13.3019 4.78919 13.5489 5.55892 13.72C6.35197 13.9067 7.18389 14 8.05469 14C8.92549 14 9.75742 13.9067 10.5505 13.72C11.3202 13.5489 12.0005 13.3019 12.5914 12.9792C13.1823 12.6564 13.641 12.285 13.9676 11.865C14.3019 11.4294 14.4691 10.9744 14.4691 10.5ZM8.05469 5.83333C8.92549 5.83333 9.75742 5.92667 10.5505 6.11333C11.3202 6.28444 12.0005 6.53139 12.5914 6.85417C13.1823 7.17694 13.641 7.54833 13.9676 7.96833C14.3019 8.40389 14.4691 8.85889 14.4691 9.33333C14.4691 9.80778 14.3019 10.2628 13.9676 10.6983C13.641 11.1183 13.1823 11.4897 12.5914 11.8125C12.0005 12.1353 11.3202 12.3822 10.5505 12.5533C9.75742 12.74 8.92549 12.8333 8.05469 12.8333C7.18389 12.8333 6.35197 12.74 5.55892 12.5533C4.78919 12.3822 4.10888 12.1353 3.51798 11.8125C2.92708 11.4897 2.46836 11.1183 2.14181 10.6983C1.80748 10.2628 1.64032 9.80778 1.64032 9.33333C1.64032 8.85889 1.80748 8.40389 2.14181 7.96833C2.46836 7.54833 2.92708 7.17694 3.51798 6.85417C4.10888 6.53139 4.78919 6.28444 5.55892 6.11333C6.35197 5.92667 7.18389 5.83333 8.05469 5.83333Z" fill="#A855F7"/>
</svg>
