<svg width="40" height="40" viewBox="0 0 40 40" fill="none" xmlns="http://www.w3.org/2000/svg">
<path d="M24.8987 23.7167L28.4645 27.2833L27.2815 28.4667L23.7157 24.9C23.0603 25.4222 22.3438 25.8222 21.5662 26.1C20.7442 26.3889 19.9 26.5333 19.0335 26.5333C17.6783 26.5333 16.4175 26.1945 15.2511 25.5167C14.1181 24.85 13.2239 23.95 12.5685 22.8167C11.8798 21.65 11.5354 20.3889 11.5354 19.0333C11.5354 17.6778 11.8798 16.4167 12.5685 15.25C13.2239 14.1167 14.1181 13.2222 15.2511 12.5667C16.4175 11.8778 17.6783 11.5333 19.0335 11.5333C20.3887 11.5333 21.6495 11.8778 22.8159 12.5667C23.949 13.2222 24.8487 14.1167 25.5152 15.25C26.1928 16.4167 26.5317 17.6778 26.5317 19.0333C26.5317 19.9 26.3872 20.7445 26.0984 21.5667C25.8207 22.3445 25.4208 23.0611 24.8987 23.7167ZM23.2158 23.1C23.7379 22.5667 24.1434 21.9556 24.4322 21.2667C24.721 20.5556 24.8654 19.8111 24.8654 19.0333C24.8654 17.9778 24.5988 16.9945 24.0656 16.0833C23.5546 15.2056 22.8603 14.5111 21.9828 14C21.0719 13.4667 20.0888 13.2 19.0335 13.2C17.9782 13.2 16.9951 13.4667 16.0843 14C15.2067 14.5111 14.5124 15.2056 14.0015 16.0833C13.4683 16.9945 13.2017 17.9778 13.2017 19.0333C13.2017 20.0889 13.4683 21.0722 14.0015 21.9833C14.5124 22.8611 15.2067 23.5556 16.0843 24.0667C16.9951 24.6 17.9782 24.8667 19.0335 24.8667C19.8111 24.8667 20.5554 24.7222 21.2663 24.4333C21.955 24.1445 22.566 23.7389 23.0992 23.2167L23.2158 23.1Z" fill="#4B5563"/>
</svg>
