<svg width="40" height="40" viewBox="0 0 40 40" fill="none" xmlns="http://www.w3.org/2000/svg">
<path d="M12.7773 24.1667C12.4219 23.5556 12.1497 22.9111 11.9609 22.2333C12.3719 22.0222 12.7023 21.7167 12.9523 21.3167C13.2022 20.9167 13.3272 20.4778 13.3272 20C13.3272 19.5222 13.2022 19.0833 12.9523 18.6833C12.7023 18.2833 12.3719 17.9778 11.9609 17.7667C12.3497 16.3778 13.0439 15.1722 14.0437 14.15C14.4325 14.4056 14.8629 14.5417 15.335 14.5583C15.8071 14.575 16.2487 14.4639 16.6597 14.225C17.0707 13.9861 17.3873 13.6583 17.6095 13.2417C17.8316 12.825 17.9316 12.3889 17.9094 11.9333C19.2979 11.5667 20.6865 11.5667 22.075 11.9333C22.0528 12.3889 22.1528 12.825 22.3749 13.2417C22.5971 13.6583 22.9137 13.9861 23.3247 14.225C23.7357 14.4639 24.1773 14.575 24.6494 14.5583C25.1215 14.5417 25.5519 14.4056 25.9407 14.15C26.4295 14.6611 26.8516 15.2222 27.2071 15.8333C27.5625 16.4445 27.8347 17.0889 28.0235 17.7667C27.6125 17.9778 27.282 18.2833 27.0321 18.6833C26.7822 19.0833 26.6572 19.5222 26.6572 20C26.6572 20.4778 26.7822 20.9167 27.0321 21.3167C27.282 21.7167 27.6125 22.0222 28.0235 22.2333C27.6347 23.6222 26.9405 24.8278 25.9407 25.85C25.5519 25.5945 25.1215 25.4583 24.6494 25.4417C24.1773 25.425 23.7357 25.5361 23.3247 25.775C22.9137 26.0139 22.5971 26.3417 22.3749 26.7583C22.1528 27.175 22.0528 27.6111 22.075 28.0667C20.6865 28.4333 19.2979 28.4333 17.9094 28.0667C17.9316 27.6111 17.8316 27.175 17.6095 26.7583C17.3873 26.3417 17.0707 26.0139 16.6597 25.775C16.2487 25.5361 15.8071 25.425 15.335 25.4417C14.8629 25.4583 14.4325 25.5945 14.0437 25.85C13.5549 25.3389 13.1328 24.7778 12.7773 24.1667ZM17.4928 24.3333C17.9371 24.5889 18.3204 24.9167 18.6425 25.3167C18.9647 25.7167 19.2091 26.1556 19.3757 26.6333C19.7867 26.6778 20.1977 26.6778 20.6087 26.6333C20.7753 26.1556 21.0169 25.7167 21.3335 25.3167C21.6501 24.9167 22.0333 24.5861 22.4832 24.325C22.9331 24.0639 23.4136 23.8945 23.9245 23.8167C24.4355 23.7389 24.9354 23.7556 25.4242 23.8667C25.6685 23.5222 25.8796 23.1611 26.0573 22.7833C25.713 22.4056 25.4492 21.9778 25.2659 21.5C25.0826 21.0222 24.9909 20.5222 24.9909 20C24.9909 19.4778 25.0826 18.9778 25.2659 18.5C25.4492 18.0222 25.713 17.5945 26.0573 17.2167C25.9685 17.0278 25.8713 16.8445 25.7657 16.6667C25.6602 16.4889 25.5464 16.3111 25.4242 16.1333C24.9354 16.2445 24.4355 16.2611 23.9245 16.1833C23.4136 16.1056 22.9359 15.9361 22.4916 15.675C22.0472 15.4139 21.664 15.0833 21.3419 14.6833C21.0197 14.2833 20.7753 13.8445 20.6087 13.3667C20.1977 13.3222 19.7867 13.3222 19.3757 13.3667C19.2091 13.8445 18.9674 14.2833 18.6509 14.6833C18.3343 15.0833 17.9483 15.4139 17.4928 15.675C17.0374 15.9361 16.5569 16.1056 16.0515 16.1833C15.5461 16.2611 15.049 16.2445 14.5602 16.1333C14.3158 16.4778 14.1048 16.8389 13.927 17.2167C14.2714 17.5945 14.5352 18.0222 14.7185 18.5C14.9018 18.9778 14.9934 19.4778 14.9934 20C14.9934 20.5222 14.9018 21.0222 14.7185 21.5C14.5352 21.9778 14.2714 22.4056 13.927 22.7833C14.0159 22.9722 14.1131 23.1556 14.2186 23.3333C14.3242 23.5111 14.438 23.6889 14.5602 23.8667C15.049 23.7556 15.5489 23.7389 16.0598 23.8167C16.5708 23.8945 17.0485 24.0667 17.4928 24.3333ZM19.9922 22.5C19.5367 22.5 19.1174 22.3889 18.7342 22.1667C18.3509 21.9445 18.0482 21.6417 17.8261 21.2583C17.6039 20.875 17.4928 20.4556 17.4928 20C17.4928 19.5445 17.6039 19.125 17.8261 18.7417C18.0482 18.3583 18.3509 18.0556 18.7342 17.8333C19.1174 17.6111 19.5367 17.5 19.9922 17.5C20.4476 17.5 20.867 17.6111 21.2502 17.8333C21.6334 18.0556 21.9361 18.3583 22.1583 18.7417C22.3805 19.125 22.4916 19.5445 22.4916 20C22.4916 20.4556 22.3805 20.875 22.1583 21.2583C21.9361 21.6417 21.6334 21.9445 21.2502 22.1667C20.867 22.3889 20.4476 22.5 19.9922 22.5ZM19.9922 20.8333C20.2255 20.8333 20.4226 20.7528 20.5837 20.5917C20.7448 20.4306 20.8253 20.2333 20.8253 20C20.8253 19.7667 20.7448 19.5695 20.5837 19.4083C20.4226 19.2472 20.2255 19.1667 19.9922 19.1667C19.7589 19.1667 19.5617 19.2472 19.4007 19.4083C19.2396 19.5695 19.1591 19.7667 19.1591 20C19.1591 20.2333 19.2396 20.4306 19.4007 20.5917C19.5617 20.7528 19.7589 20.8333 19.9922 20.8333Z" fill="#4B5563"/>
</svg>
