<svg width="19" height="29" viewBox="0 0 19 29" fill="none" xmlns="http://www.w3.org/2000/svg">
<path d="M10.8333 18.015L7.68065 16.305C7.40042 16.595 7.07014 16.825 6.68983 16.995C6.30951 17.165 5.90918 17.25 5.48883 17.25C4.94838 17.25 4.44796 17.115 3.98758 16.845C3.52719 16.575 3.16189 16.21 2.89167 15.75C2.62144 15.29 2.48633 14.79 2.48633 14.25C2.48633 13.71 2.62144 13.21 2.89167 12.75C3.16189 12.29 3.52719 11.925 3.98758 11.655C4.44796 11.385 4.94838 11.25 5.48883 11.25C5.90918 11.25 6.30951 11.335 6.68983 11.505C7.07014 11.675 7.40042 11.905 7.68065 12.195L10.8333 10.485C10.7732 10.245 10.7432 10 10.7432 9.75C10.7432 9.21 10.8783 8.71 11.1485 8.25C11.4188 7.79 11.7841 7.425 12.2445 7.155C12.7048 6.885 13.2053 6.75 13.7457 6.75C14.2862 6.75 14.7866 6.885 15.247 7.155C15.7073 7.425 16.0726 7.79 16.3429 8.25C16.6131 8.71 16.7482 9.21 16.7482 9.75C16.7482 10.29 16.6131 10.79 16.3429 11.25C16.0726 11.71 15.7073 12.075 15.247 12.345C14.7866 12.615 14.2862 12.75 13.7457 12.75C13.3254 12.75 12.925 12.665 12.5447 12.495C12.1644 12.325 11.8341 12.095 11.5539 11.805L8.40125 13.515C8.4613 13.755 8.49133 14 8.49133 14.25C8.49133 14.5 8.4613 14.745 8.40125 14.985L11.5539 16.695C11.8341 16.405 12.1644 16.175 12.5447 16.005C12.925 15.835 13.3254 15.75 13.7457 15.75C14.2862 15.75 14.7866 15.885 15.247 16.155C15.7073 16.425 16.0726 16.79 16.3429 17.25C16.6131 17.71 16.7482 18.21 16.7482 18.75C16.7482 19.29 16.6131 19.79 16.3429 20.25C16.0726 20.71 15.7073 21.075 15.247 21.345C14.7866 21.615 14.2862 21.75 13.7457 21.75C13.2053 21.75 12.7048 21.615 12.2445 21.345C11.7841 21.075 11.4188 20.71 11.1485 20.25C10.8783 19.79 10.7432 19.29 10.7432 18.75C10.7432 18.5 10.7732 18.255 10.8333 18.015ZM5.48883 15.75C5.75905 15.75 6.00926 15.6825 6.23945 15.5475C6.46964 15.4125 6.6523 15.23 6.78741 15C6.92252 14.77 6.99008 14.52 6.99008 14.25C6.99008 13.98 6.92252 13.73 6.78741 13.5C6.6523 13.27 6.46964 13.0875 6.23945 12.9525C6.00926 12.8175 5.75905 12.75 5.48883 12.75C5.2186 12.75 4.96839 12.8175 4.7382 12.9525C4.50801 13.0875 4.32536 13.27 4.19025 13.5C4.05513 13.73 3.98758 13.98 3.98758 14.25C3.98758 14.52 4.05513 14.77 4.19025 15C4.32536 15.23 4.50801 15.4125 4.7382 15.5475C4.96839 15.6825 5.2186 15.75 5.48883 15.75ZM13.7457 11.25C14.0159 11.25 14.2661 11.1825 14.4963 11.0475C14.7265 10.9125 14.9092 10.73 15.0443 10.5C15.1794 10.27 15.247 10.02 15.247 9.75C15.247 9.48 15.1794 9.23 15.0443 9C14.9092 8.77 14.7265 8.5875 14.4963 8.4525C14.2661 8.3175 14.0159 8.25 13.7457 8.25C13.4755 8.25 13.2253 8.3175 12.9951 8.4525C12.7649 8.5875 12.5822 8.77 12.4471 9C12.312 9.23 12.2445 9.48 12.2445 9.75C12.2445 10.02 12.312 10.27 12.4471 10.5C12.5822 10.73 12.7649 10.9125 12.9951 11.0475C13.2253 11.1825 13.4755 11.25 13.7457 11.25ZM13.7457 20.25C14.0159 20.25 14.2661 20.1825 14.4963 20.0475C14.7265 19.9125 14.9092 19.73 15.0443 19.5C15.1794 19.27 15.247 19.02 15.247 18.75C15.247 18.48 15.1794 18.23 15.0443 18C14.9092 17.77 14.7265 17.5875 14.4963 17.4525C14.2661 17.3175 14.0159 17.25 13.7457 17.25C13.4755 17.25 13.2253 17.3175 12.9951 17.4525C12.7649 17.5875 12.5822 17.77 12.4471 18C12.312 18.23 12.2445 18.48 12.2445 18.75C12.2445 19.02 12.312 19.27 12.4471 19.5C12.5822 19.73 12.7649 19.9125 12.9951 20.0475C13.2253 20.1825 13.4755 20.25 13.7457 20.25Z" fill="#6B7280"/>
</svg>
