<svg width="26" height="24" viewBox="0 0 26 24" fill="none" xmlns="http://www.w3.org/2000/svg">
<path d="M5.25 22.5C5.25 21.0467 5.61667 19.7 6.35 18.46C7.05667 17.26 8.01 16.3067 9.21 15.6C10.45 14.8667 11.7967 14.5 13.25 14.5C14.7033 14.5 16.05 14.8667 17.29 15.6C18.49 16.3067 19.4433 17.26 20.15 18.46C20.8833 19.7 21.25 21.0467 21.25 22.5H19.25C19.25 21.42 18.9767 20.4133 18.43 19.48C17.8967 18.5733 17.1767 17.8533 16.27 17.32C15.3367 16.7733 14.33 16.5 13.25 16.5C12.17 16.5 11.1633 16.7733 10.23 17.32C9.32333 17.8533 8.60333 18.5733 8.07 19.48C7.52333 20.4133 7.25 21.42 7.25 22.5H5.25ZM13.25 13.5C12.1567 13.5 11.15 13.2267 10.23 12.68C9.32333 12.1467 8.60333 11.4267 8.07 10.52C7.52333 9.6 7.25 8.59333 7.25 7.5C7.25 6.40667 7.52333 5.4 8.07 4.48C8.60333 3.57333 9.32333 2.85333 10.23 2.32C11.15 1.77333 12.1567 1.5 13.25 1.5C14.3433 1.5 15.35 1.77333 16.27 2.32C17.1767 2.85333 17.8967 3.57333 18.43 4.48C18.9767 5.4 19.25 6.40667 19.25 7.5C19.25 8.59333 18.9767 9.6 18.43 10.52C17.8967 11.4267 17.1767 12.1467 16.27 12.68C15.35 13.2267 14.3433 13.5 13.25 13.5ZM13.25 11.5C13.97 11.5 14.6367 11.32 15.25 10.96C15.8633 10.6 16.35 10.1133 16.71 9.5C17.07 8.88667 17.25 8.22 17.25 7.5C17.25 6.78 17.07 6.11333 16.71 5.5C16.35 4.88667 15.8633 4.4 15.25 4.04C14.6367 3.68 13.97 3.5 13.25 3.5C12.53 3.5 11.8633 3.68 11.25 4.04C10.6367 4.4 10.15 4.88667 9.79 5.5C9.43 6.11333 9.25 6.78 9.25 7.5C9.25 8.22 9.43 8.88667 9.79 9.5C10.15 10.1133 10.6367 10.6 11.25 10.96C11.8633 11.32 12.53 11.5 13.25 11.5Z" fill="#4B5563"/>
</svg>
