<svg width="26" height="24" viewBox="0 0 26 24" fill="none" xmlns="http://www.w3.org/2000/svg">
<path d="M14.25 20V22H12.25V20H4.25C3.97 20 3.73333 19.9033 3.54 19.71C3.34667 19.5167 3.25 19.28 3.25 19V3C3.25 2.72 3.34667 2.48333 3.54 2.29C3.73333 2.09667 3.97 2 4.25 2H10.25C10.8367 2 11.39 2.12 11.91 2.36C12.43 2.6 12.8767 2.93333 13.25 3.36C13.6233 2.93333 14.07 2.6 14.59 2.36C15.11 2.12 15.6633 2 16.25 2H22.25C22.53 2 22.7667 2.09667 22.96 2.29C23.1533 2.48333 23.25 2.72 23.25 3V19C23.25 19.28 23.1533 19.5167 22.96 19.71C22.7667 19.9033 22.53 20 22.25 20H14.25ZM21.25 18V4H16.25C15.89 4 15.5567 4.09 15.25 4.27C14.9433 4.45 14.7 4.69333 14.52 5C14.34 5.30667 14.25 5.64 14.25 6V18H21.25ZM12.25 18V6C12.25 5.64 12.16 5.30667 11.98 5C11.8 4.69333 11.5567 4.45 11.25 4.27C10.9433 4.09 10.61 4 10.25 4H5.25V18H12.25Z" fill="#4B5563"/>
</svg>
