<svg width="26" height="24" viewBox="0 0 26 24" fill="none" xmlns="http://www.w3.org/2000/svg">
<path d="M7.75 6V3C7.75 2.72 7.84667 2.48333 8.04 2.29C8.23333 2.09667 8.47 2 8.75 2H16.75C17.03 2 17.2667 2.09667 17.46 2.29C17.6533 2.48333 17.75 2.72 17.75 3V6H21.75C22.03 6 22.2667 6.09667 22.46 6.29C22.6533 6.48333 22.75 6.72 22.75 7V21C22.75 21.28 22.6533 21.5167 22.46 21.71C22.2667 21.9033 22.03 22 21.75 22H3.75C3.47 22 3.23333 21.9033 3.04 21.71C2.84667 21.5167 2.75 21.28 2.75 21V7C2.75 6.72 2.84667 6.48333 3.04 6.29C3.23333 6.09667 3.47 6 3.75 6H7.75ZM4.75 17V20H20.75V17H4.75ZM4.75 15H20.75V8H4.75V15ZM9.75 4V6H15.75V4H9.75ZM11.75 12H13.75V14H11.75V12Z" fill="#4B5563"/>
</svg>
